<?xml version="1.0" standalone="no"?>
<!DOCTYPE svg PUBLIC "-//W3C//DTD SVG 20010904//EN"
 "http://www.w3.org/TR/2001/REC-SVG-20010904/DTD/svg10.dtd">
<svg version="1.0" xmlns="http://www.w3.org/2000/svg"
 width="800.000000pt" height="800.000000pt" viewBox="0 0 800.000000 800.000000"
 preserveAspectRatio="xMidYMid meet">
<metadata>
Created by potrace 1.11, written by Peter Selinger 2001-2013
</metadata>
<g transform="translate(0.000000,800.000000) scale(0.100000,-0.100000)"
fill="#000000" stroke="none">
<path d="M0 4000 l0 -4000 4000 0 4000 0 0 4000 0 4000 -4000 0 -4000 0 0
-4000z m5417 2258 l153 -153 0 -1270 0 -1270 -157 -157 -158 -158 -1262 0
-1262 0 -160 163 -161 162 0 1260 0 1260 157 157 158 158 1270 0 1270 0 152
-152z m-2374 -3509 c49 -13 105 -63 128 -114 16 -35 19 -70 19 -296 l0 -255
-34 -17 -35 -16 -3 272 c-3 302 -4 307 -71 347 -66 40 -153 13 -189 -60 -16
-31 -18 -67 -18 -281 l0 -245 -35 -17 -35 -17 0 273 c0 243 2 276 19 312 45
98 147 144 254 114z m1312 -179 c63 0 115 -2 115 -5 0 -3 -7 -21 -14 -40 l-15
-35 -100 0 -101 0 0 -150 c0 -146 1 -152 24 -175 46 -46 109 -45 152 2 13 14
24 34 24 45 0 19 64 57 76 45 10 -10 -15 -108 -36 -137 -25 -35 -95 -70 -141
-70 -55 1 -114 33 -146 81 -27 41 -28 47 -31 201 l-4 158 -24 0 c-13 0 -24 2
-24 5 0 17 31 75 39 75 7 0 11 30 11 79 l0 79 38 15 37 15 3 -94 3 -94 114 0z
m-597 -23 c64 -42 77 -81 77 -232 0 -151 -13 -190 -76 -232 -84 -55 -192 -34
-246 48 -27 42 -28 46 -28 184 0 138 1 142 28 184 54 82 162 103 245 48z
m1325 19 c54 -22 95 -73 107 -133 6 -29 10 -59 7 -66 -2 -6 -64 -39 -138 -73
-146 -66 -157 -78 -119 -127 51 -65 180 -29 180 51 0 21 65 57 75 42 3 -5 3
-27 -1 -47 -31 -170 -229 -221 -321 -82 -27 42 -28 46 -28 184 0 138 1 142 28
184 46 70 136 99 210 67z"/>
<path d="M3040 4830 l0 -950 950 0 950 0 0 950 0 950 -950 0 -950 0 0 -950z"/>
<path d="M3589 2471 c-29 -29 -29 -30 -29 -156 0 -120 1 -127 24 -150 46 -46
109 -45 152 2 23 24 24 33 24 147 0 100 -4 125 -18 142 -42 53 -109 59 -153
15z"/>
<path d="M4949 2471 c-26 -26 -29 -36 -29 -90 0 -34 4 -61 9 -61 9 0 182 78
190 85 10 11 -25 68 -50 80 -45 24 -87 19 -120 -14z"/>
</g>
</svg>
